<svg width="24" height="24" viewBox="0 0 24 24" fill="none" xmlns="http://www.w3.org/2000/svg">
<path d="M12 16C14.2091 16 16 14.2091 16 12C16 9.79086 14.2091 8 12 8C9.79086 8 8 9.79086 8 12C8 14.2091 9.79086 16 12 16Z" stroke="black" stroke-width="2" stroke-miterlimit="10"/>
<path d="M13.42 1.8L15.68 4.67C15.89 4.93 16.19 5.1 16.52 5.15L20.1399 5.67L21.5599 8.12L20.2099 11.51C20.0899 11.82 20.0899 12.17 20.2099 12.48L21.5599 15.87L20.1399 18.32L16.52 18.84C16.19 18.89 15.89 19.06 15.68 19.32L13.42 22.19H10.59L8.32995 19.32C8.11995 19.06 7.81995 18.89 7.48995 18.84L3.86995 18.32L2.44995 15.87L3.79995 12.48C3.91995 12.17 3.91995 11.82 3.79995 11.51L2.44995 8.12L3.86995 5.67L7.48995 5.15C7.81995 5.1 8.11995 4.93 8.32995 4.67L10.59 1.8H13.42Z" stroke="black" stroke-width="2" stroke-linejoin="round"/>
</svg>
