<svg width="19" height="18" viewBox="0 0 19 18" fill="none" xmlns="http://www.w3.org/2000/svg">
<path d="M10.653 0.385106C10.3776 0.137184 10.0201 0 9.64954 0C9.27895 0 8.92148 0.137184 8.64604 0.385106L0.649536 7.58211V15.3821C0.649536 16.0186 0.902393 16.6291 1.35248 17.0792C1.80257 17.5292 2.41302 17.7821 3.04954 17.7821H16.2495C16.8861 17.7821 17.4965 17.5292 17.9466 17.0792C18.3967 16.6291 18.6495 16.0186 18.6495 15.3821V7.58211L10.653 0.385106ZM11.8995 16.2799H7.39954V12.5104C7.39954 11.9136 7.63659 11.3413 8.05855 10.9194C8.4805 10.4974 9.0528 10.2604 9.64954 10.2604C10.2463 10.2604 10.8186 10.4974 11.2405 10.9194C11.6625 11.3413 11.8995 11.9136 11.8995 12.5104V16.2799ZM17.1495 15.3799C17.1495 15.6186 17.0547 15.8475 16.8859 16.0163C16.7171 16.185 16.4882 16.2799 16.2495 16.2799H13.3995V12.5104C13.3995 11.5158 13.0044 10.562 12.3012 9.85871C11.5979 9.15544 10.6441 8.76036 9.64954 8.76036C8.65497 8.76036 7.70115 9.15544 6.99789 9.85871C6.29462 10.562 5.89954 11.5158 5.89954 12.5104V16.2799H3.04954C2.81084 16.2799 2.58192 16.185 2.41314 16.0163C2.24436 15.8475 2.14954 15.6186 2.14954 15.3799V8.24961L9.64954 1.49961L17.1495 8.24961V15.3799Z" fill="black"/>
</svg>
