<svg width="15" height="18" viewBox="0 0 15 18" fill="none" xmlns="http://www.w3.org/2000/svg">
<path d="M7.6701 9C8.56012 9 9.43015 8.73608 10.1702 8.24162C10.9102 7.74715 11.487 7.04434 11.8276 6.22208C12.1682 5.39981 12.2573 4.49501 12.0836 3.6221C11.91 2.74918 11.4814 1.94736 10.8521 1.31802C10.2227 0.688685 9.42093 0.260102 8.54801 0.0864683C7.6751 -0.0871652 6.7703 0.00194979 5.94803 0.342544C5.12576 0.683138 4.42296 1.25991 3.92849 1.99994C3.43403 2.73996 3.1701 3.60999 3.1701 4.5C3.1713 5.69311 3.64578 6.83701 4.48944 7.68067C5.3331 8.52432 6.477 8.99881 7.6701 9ZM7.6701 1.5C8.26345 1.5 8.84347 1.67595 9.33682 2.00559C9.83016 2.33524 10.2147 2.80377 10.4417 3.35195C10.6688 3.90013 10.7282 4.50333 10.6125 5.08527C10.4967 5.66722 10.211 6.20177 9.79143 6.62132C9.37187 7.04088 8.83732 7.3266 8.25538 7.44236C7.67343 7.55811 7.07023 7.4987 6.52205 7.27164C5.97388 7.04458 5.50534 6.66006 5.1757 6.16671C4.84605 5.67337 4.6701 5.09335 4.6701 4.5C4.6701 3.70435 4.98618 2.94129 5.54878 2.37868C6.11139 1.81607 6.87446 1.5 7.6701 1.5Z" fill="#6BE956"/>
<path d="M7.6701 10.5001C5.8805 10.5021 4.16477 11.2139 2.89933 12.4793C1.63389 13.7448 0.92209 15.4605 0.920105 17.2501C0.920105 17.449 0.999123 17.6398 1.13977 17.7805C1.28043 17.9211 1.47119 18.0001 1.6701 18.0001C1.86902 18.0001 2.05978 17.9211 2.20043 17.7805C2.34109 17.6398 2.4201 17.449 2.4201 17.2501C2.4201 15.8577 2.97323 14.5224 3.95779 13.5378C4.94236 12.5532 6.27772 12.0001 7.6701 12.0001C9.06249 12.0001 10.3978 12.5532 11.3824 13.5378C12.367 14.5224 12.9201 15.8577 12.9201 17.2501C12.9201 17.449 12.9991 17.6398 13.1398 17.7805C13.2804 17.9211 13.4712 18.0001 13.6701 18.0001C13.869 18.0001 14.0598 17.9211 14.2004 17.7805C14.3411 17.6398 14.4201 17.449 14.4201 17.2501C14.4181 15.4605 13.7063 13.7448 12.4409 12.4793C11.1754 11.2139 9.45971 10.5021 7.6701 10.5001Z" fill="#6BE956"/>
</svg>
