<?xml version="1.0" encoding="utf-8"?>
<!-- Generator: Adobe Illustrator 27.8.1, SVG Export Plug-In . SVG Version: 6.00 Build 0)  -->
<svg version="1.1" id="レイヤー_1" xmlns="http://www.w3.org/2000/svg" xmlns:xlink="http://www.w3.org/1999/xlink" x="0px"
	 y="0px" viewBox="0 0 595.28 841.89" style="enable-background:new 0 0 595.28 841.89;" xml:space="preserve">
<style type="text/css">
	.st0{fill:#FFFFFF;stroke:#000000;stroke-width:3;stroke-miterlimit:10;}
	.st1{fill:none;}
	.st2{stroke:#FFFFFF;stroke-miterlimit:10;}
	.st3{fill:none;stroke:#000000;stroke-width:2;stroke-miterlimit:10;}
	.st4{fill:#FFFFFF;stroke:#000000;stroke-width:2;stroke-miterlimit:10;}
	.st5{fill:#FFFFFF;stroke:#000000;stroke-miterlimit:10;}
	.st6{fill:none;stroke:#000000;stroke-width:3;stroke-miterlimit:10;}
	.st7{fill:#7CC058;}
</style>
<path class="st0" d="M344.87,562.2l41.51-32.35c0,0,23.62-13.27,24.52,17.18l-0.28,1.21l-39.2,36.63"/>
<path class="st0" d="M375.73,537.95l-31.29,23.92l-36.83-0.12l39.7-31.91C347.31,529.83,368.4,519.65,375.73,537.95"/>
<path class="st0" d="M328.49,424.79c-9.05,6.65-20.11,10.57-32.05,10.57c-12.05,0-23.2-3.99-32.3-10.75
	c-19.95,28.31-33.8,82.18-35.08,144.75h134.37C362.17,506.92,348.38,453.15,328.49,424.79z"/>
<path id="SVGID_x5F_1_x5F_" class="st1" d="M442.31,287.41c73.43,80.28,67.88,204.89-12.41,278.32s-204.89,67.88-278.32-12.41
	S83.7,348.43,163.98,275S368.88,207.12,442.31,287.41z"/>
<text><textPath  xlink:href="#SVGID_x5F_1_x5F_" startOffset="86.3014%">
<tspan  style="fill:#797A7A; font-family:'PPuhuPicnicMin2-H-83pv-RKSJ-H'; font-size:100px;">TEC</tspan><tspan  class="st7" style="font-family:'PPuhuPicnicMin2-H-83pv-RKSJ-H'; font-size:100px;">HELP</tspan><tspan  style="fill:#797A7A; font-family:'PPuhuPicnicMin2-H-83pv-RKSJ-H'; font-size:100px;">ER</tspan></textPath>
</text>
<path class="st2" d="M296.44,320.37c-4.51,0-8.89,0.57-13.09,1.62c-0.26,2.26-0.41,4.55-0.41,6.88c0,31.76,24.85,57.5,55.5,57.5
	c4.51,0,8.89-0.57,13.09-1.62c0.26-2.26,0.41-4.55,0.41-6.88C351.94,346.11,327.1,320.37,296.44,320.37z"/>
<path class="st2" d="M240.94,377.87c0,1.94,0.1,3.85,0.28,5.74c7.32,3.69,15.54,5.76,24.22,5.76c30.65,0,55.5-25.74,55.5-57.5
	c0-1.94-0.1-3.85-0.28-5.74c-7.32-3.69-15.54-5.76-24.22-5.76C265.79,320.37,240.94,346.11,240.94,377.87z"/>
<polygon class="st2" points="345.73,322.37 296.44,355.87 248.15,322.37 297.44,292.87 "/>
<ellipse class="st3" cx="296.44" cy="377.87" rx="55.5" ry="57.5"/>
<rect x="264.94" y="395.37" class="st4" width="25" height="16"/>
<rect x="302.94" y="395.37" class="st4" width="25" height="16"/>
<path class="st5" d="M289.94,404.5L289.94,404.5c3.85-2.75,9-2.78,12.88-0.08l0.12,0.08"/>
<path class="st0" d="M371.31,585.09l43.91-41.29c0,0,13.82-7.29,20-4.2c4.88,2.44,9.77,4.88,7.33,17.09l-5.04,15.94l-66.68,14.88"/>
<path class="st6" d="M370.83,587.51l74.16-16.17c0,0,18.04,3.03,16.35,16.17c-1.7,13.14-16.35,20.46-16.35,20.46L356,633.07
	c-4.16,1.17-8.17,2.79-11.98,4.82l-14.27,7.61c-10.86,5.79-23.14,8.4-35.43,7.53l-83.76-5.98"/>
<path class="st0" d="M173.94,571.34c0,0,57.12-34.06,120.13-9.7l61.53,0.46c0,0,16.13,1.91,16.13,16.57s-4.88,17.09-14.65,19.53
	c-9.77,2.44-80.2,0-80.2,0"/>
<rect x="286.44" y="441.87" class="st7" width="21" height="13"/>
<polygon class="st7" points="282.44,510.87 286.44,460.87 307.44,460.87 311.44,510.87 "/>
</svg>
